<?xml version="1.0" encoding="utf-8"?>
<!-- Generator: Adobe Illustrator 25.2.1, SVG Export Plug-In . SVG Version: 6.00 Build 0)  -->
<svg version="1.1" id="Layer_1" xmlns="http://www.w3.org/2000/svg" xmlns:xlink="http://www.w3.org/1999/xlink" x="0px" y="0px"
	 viewBox="0 0 300 300" style="enable-background:new 0 0 300 300;" xml:space="preserve">
<style type="text/css">
	.st0{fill:#FFFFFF;}
</style>
<g>
	<path class="st0" d="M150.1,0c41.4,0,78.9,16.7,106.1,44.1c27.1,27.1,43.8,64.6,43.8,106.1s-16.7,78.9-43.8,106.1
		c-27.1,27.1-64.6,43.8-106.1,43.8s-78.9-16.7-106.1-43.8C16.7,229.1,0,191.6,0,150.1S16.7,71.2,44.1,44.1
		C71.2,16.7,108.7,0,150.1,0L150.1,0z M78.1,40.2c9.8,8.3,17.6,20.3,22.3,34.3c4.5,13.7,5.7,28.9,2.7,44.4c12.5-1.5,25-2.4,37.5-2.7
		V19.1C117.7,20.9,96.2,28.3,78.1,40.2z M96.5,138.5c-0.6,1.2-1.2,2.4-1.8,3.6l-0.9,1.8c-19.1,35.5-32.5,60.5-20,113.2
		c19.1,13.4,42,22,66.7,23.8V135C126,135.3,111.1,136.4,96.5,138.5z M51.2,236.5c-4.8-39.9,6.3-64.1,22-93.8
		c-18.2,3.6-36.3,8.6-54.2,14.9C20.6,187.7,32.5,215.1,51.2,236.5z M83.1,121.8c4.5-14.3,3.6-28.9-0.6-41.4
		c-4.2-12.5-11.3-22.6-20-28.3c-1.8,1.5-3.6,3.3-5.4,5.1C36,78.4,22.3,106.4,19.4,137.6C40.5,130.8,61.7,125.4,83.1,121.8z
		 M237.4,52.1c-8.6,5.7-15.8,15.8-20,28.3c-4.2,12.5-4.8,27.1-0.6,41.1c21.4,3.6,42.6,8.9,63.8,16.1c-2.7-31.3-16.7-59.3-37.8-80.4
		C241,55.4,239.2,53.6,237.4,52.1z M226.7,142.4c15.8,29.8,26.8,54.2,22,94.1c18.8-21.4,30.7-48.9,32.5-78.9
		C263.1,151.3,244.9,146.3,226.7,142.4z M226.1,257.1c12.5-52.7-0.6-77.8-19.7-113.2l-1.2-1.8c-0.6-1.2-1.2-2.4-1.8-3.6
		c-14.6-2.1-29.5-3.3-44.1-3.9v146.3C184.1,279.1,207.1,270.5,226.1,257.1z M196.9,118.9c-3-15.5-1.5-31,2.7-44.4
		c4.8-14,12.8-25.9,22.6-34.3c-18.5-11.9-39.9-19.4-62.9-21.2v97.1C171.9,116.5,184.4,117.4,196.9,118.9z"/>
</g>
</svg>
