<?xml version="1.0" encoding="utf-8"?>
<!-- Generator: Adobe Illustrator 25.2.1, SVG Export Plug-In . SVG Version: 6.00 Build 0)  -->
<svg version="1.1" id="Layer_1" xmlns="http://www.w3.org/2000/svg" xmlns:xlink="http://www.w3.org/1999/xlink" x="0px" y="0px"
	 viewBox="0 0 300 300" style="enable-background:new 0 0 300 300;" xml:space="preserve">
<style type="text/css">
	.st0{fill:#FFFFFF;}
</style>
<g>
	<path class="st0" d="M274.6,25.4c-7.1-6.8-37.2-9.9-75.1-3.7c-2.2,0.3-4,0.6-6.2,1.2c4,7.4,8.4,14.9,13,21.7c6.5,9.6,14,18.9,22,27
		c8.4,8.4,17.7,15.8,27.9,22.6c6.5,4.7,13.7,8.7,21.1,12.4c0.3-1.9,0.6-4,0.9-6.2C284.8,63,281.7,32.6,274.6,25.4z M174,161
		c3.7,3.4,3.7,9.6,0,13c-3.4,3.7-9.6,3.7-13,0l-10.9-10.9L139,174.4l10.9,10.9c3.7,3.7,3.7,9.6,0,13.3c-3.7,3.7-9.6,3.7-13.3,0
		l-10.9-10.9l-8.4,8.4c-3.7,3.7-9.6,3.7-13.3,0c-3.4-3.7-3.4-9.6,0-13.3l8.4-8.4l-10.5-10.9c-3.7-3.7-3.7-9.6,0-13.3
		c3.4-3.7,9.3-3.7,13,0l10.9,10.9l11.2-10.9L126,139.3c-3.7-3.7-3.7-9.6,0-13.3c3.7-3.7,9.6-3.7,13.3,0l10.9,10.9l10.9-11.2
		l-10.9-10.9c-3.7-3.7-3.7-9.6,0-13c3.7-3.7,9.6-3.7,13.3,0l10.9,10.5l8.4-8.4c3.7-3.4,9.6-3.4,13.3,0c3.7,3.7,3.7,9.6,0,13.3
		l-8.4,8.4l10.9,10.9c3.7,3.7,3.7,9.6,0,13.3c-3.7,3.7-9.6,3.7-13.3,0L174.4,139l-11.2,11.2L174,161L174,161z M106.7,277.4
		c-3.7-7.8-8.1-14.9-13-22c-6.5-9.6-14-18.6-22-27c-8.1-8.1-17.1-15.5-27-22c-6.8-4.7-14.3-9-21.7-13c-0.6,2.2-0.9,4-1.2,6.2
		c-6.2,37.8-3.1,67.9,3.7,75.1c7.1,7.1,37.5,10.2,75.1,3.7C102.7,278,104.9,277.7,106.7,277.4z M27.3,174.4
		c9.9,5,19.2,10.5,27.9,16.4c10.9,7.4,20.8,15.5,29.8,24.5c8.7,8.7,16.8,18.6,24.2,29.5c6.2,8.7,11.5,18.3,16.4,28.2
		c32.6-9,66.7-25.7,94.3-53.1c27.3-27.6,44.1-61.7,53.1-94.3c-9.6-4.7-18.9-9.9-27.3-15.8c-11.2-7.4-21.4-15.8-30.4-24.8
		c-9-9-17.1-18.9-24.5-29.8c-5.9-8.7-11.5-18.3-16.4-27.9c-32.3,9-66.7,25.4-94.3,52.7C52.7,107.7,36.3,142.1,27.3,174.4L27.3,174.4
		z M196.4,3.1c43.7-7.1,81-1.2,91.5,9c10.5,10.5,16.1,48.1,9,91.5c-7.1,42.2-25.7,91.8-63.6,129.7s-87.5,56.5-129.7,63.6
		c-43.4,7.1-81,1.6-91.5-9c-10.2-10.5-16.1-47.8-9-91.5C10.2,154.2,29.2,104.9,67,67C104.6,29.2,154.2,10.2,196.4,3.1L196.4,3.1z"/>
</g>
</svg>
