<?xml version="1.0" encoding="utf-8"?>
<!-- Generator: Adobe Illustrator 24.3.0, SVG Export Plug-In . SVG Version: 6.00 Build 0)  -->
<svg version="1.1"
	 id="Layer_1" xmlns:cc="http://creativecommons.org/ns#" xmlns:dc="http://purl.org/dc/elements/1.1/" xmlns:inkscape="http://www.inkscape.org/namespaces/inkscape" xmlns:rdf="http://www.w3.org/1999/02/22-rdf-syntax-ns#" xmlns:sodipodi="http://sodipodi.sourceforge.net/DTD/sodipodi-0.dtd" xmlns:svg="http://www.w3.org/2000/svg"
	 xmlns="http://www.w3.org/2000/svg" xmlns:xlink="http://www.w3.org/1999/xlink" x="0px" y="0px" viewBox="0 0 300 300"
	 style="enable-background:new 0 0 300 300;" xml:space="preserve">
<style type="text/css">
	.st0{fill:#FFFFFF;}
</style>
<g transform="translate(0,-952.36218)">
	<path class="st0" d="M150,1036.4c-55,0-103.5,24.7-130.9,62.4c-1.5,2.1-1.5,4.9,0,7c27.4,37.7,75.8,62.5,130.9,62.5
		s103.5-24.8,130.9-62.5c1.5-2.1,1.5-4.9,0-7C253.5,1061.1,205,1036.4,150,1036.4z M150,1048.4c29.8,0,57.3,7.9,80,21.2
		c-5,9.6-8,20.8-8,32.8c0,12,3,23.3,8.1,32.9c-22.7,13.3-50.3,21.1-80.1,21.1s-57.3-7.8-80.1-21.1c5.1-9.6,8.1-20.9,8.1-32.9
		c0-12-2.9-23.2-8-32.8C92.7,1056.3,120.2,1048.4,150,1048.4L150,1048.4z M59.9,1076c3.8,7.7,6.1,16.7,6.1,26.3
		c0,9.7-2.3,18.8-6.2,26.4c-10.8-7.6-20.3-16.6-28-26.4C39.6,1092.4,49.1,1083.6,59.9,1076z M240.1,1076
		c10.8,7.6,20.3,16.4,28.1,26.3c-7.8,9.9-17.2,18.9-28,26.4c-3.9-7.7-6.2-16.7-6.2-26.4C234,1092.7,236.3,1083.7,240.1,1076
		L240.1,1076z M114,1078.4v6v12h-12h-6v12h6h12v12v6h12v-6v-12h18v12v6h12v-6v-12h18v12v6h12v-6v-12h12h6v-12h-6h-12v-12v-6h-12v6
		v12h-18v-12v-6h-12v6v12h-18v-12v-6H114z"/>
</g>
</svg>
